<?xml version="1.0" standalone="no"?>
<!DOCTYPE svg PUBLIC "-//W3C//DTD SVG 20010904//EN"
 "http://www.w3.org/TR/2001/REC-SVG-20010904/DTD/svg10.dtd">
<svg version="1.0" xmlns="http://www.w3.org/2000/svg"
 width="1234.000000pt" height="1280.000000pt" viewBox="0 0 1234.000000 1280.000000"
 preserveAspectRatio="xMidYMid meet">
<g transform="translate(0.000000,1280.000000) scale(0.100000,-0.100000)"
fill="#000000" stroke="none">
<path d="M5885 12779 c-114 -32 -193 -75 -266 -148 -36 -36 -76 -85 -87 -108
-31 -60 -72 -208 -72 -259 0 -57 0 -57 -215 -89 -589 -89 -1139 -271 -1765
-585 -245 -123 -398 -212 -620 -360 -403 -271 -578 -415 -920 -759 -414 -416
-669 -745 -956 -1236 -210 -360 -323 -601 -467 -1000 -229 -632 -341 -1189
-367 -1819 -10 -245 2 -834 20 -954 6 -37 17 -123 25 -191 38 -313 168 -830
302 -1201 291 -805 738 -1534 1323 -2156 872 -927 2158 -1616 3395 -1818 382
-62 736 -96 1002 -96 181 0 261 4 573 31 418 35 835 114 1213 228 840 254
1581 658 2232 1217 177 152 456 428 577 569 211 248 482 626 668 935 131 218
379 750 485 1041 84 229 195 606 195 659 0 15 -5 20 -17 18 -13 -2 -28 -35
-56 -123 -21 -66 -68 -212 -104 -325 -244 -765 -668 -1530 -1175 -2120 -135
-157 -491 -512 -653 -651 -379 -326 -982 -701 -1457 -908 -460 -199 -1059
-371 -1537 -441 -279 -41 -425 -51 -771 -57 -566 -9 -953 28 -1444 138 -956
215 -1843 652 -2599 1282 -272 226 -608 574 -840 870 -536 683 -931 1496
-1142 2357 -39 159 -79 382 -122 675 -28 188 -28 194 -28 700 0 347 4 550 13
635 19 184 58 424 98 605 19 88 48 226 64 306 40 198 122 457 253 802 120 313
360 772 570 1087 315 475 795 998 1244 1356 759 607 1650 1020 2619 1213 184
37 350 62 368 55 8 -3 23 -35 36 -72 31 -97 75 -169 144 -237 137 -135 351
-195 530 -149 217 56 357 205 416 442 16 64 29 67 216 48 1022 -105 1925 -426
2764 -981 394 -261 628 -453 986 -810 279 -279 348 -356 524 -590 682 -901
1090 -1972 1200 -3150 30 -317 31 -572 4 -1079 -7 -121 -6 -128 11 -124 26 4
32 39 45 263 19 317 24 620 11 740 -6 60 -16 162 -21 225 -73 802 -286 1532
-667 2295 -165 328 -449 755 -723 1085 -241 291 -753 765 -1095 1014 -866 632
-1888 1032 -2927 1146 -103 11 -214 20 -247 20 -33 0 -63 5 -67 11 -3 6 -13
43 -21 82 -23 116 -75 211 -157 292 -82 81 -160 123 -285 154 -100 25 -143 25
-236 0z"/>
<path d="M8392 12260 c-15 -24 -25 -25 -46 -5 -21 21 -25 19 -23 -12 2 -22 -3
-29 -20 -31 -28 -4 -29 -9 -2 -31 21 -17 21 -18 3 -46 -18 -28 -18 -28 3 -16
34 18 52 13 59 -15 l7 -26 13 32 c10 22 19 30 29 26 52 -21 51 -21 33 1 -24
26 -23 41 5 64 21 19 21 20 2 18 -38 -3 -44 1 -47 31 -3 29 -4 30 -16 10z"/>
<path d="M9060 12185 c-26 -43 -41 -44 -73 -5 -33 39 -38 38 -25 -6 13 -50 6
-62 -44 -66 l-43 -3 43 -23 c23 -12 42 -26 42 -30 0 -5 -11 -23 -25 -42 -14
-19 -25 -35 -25 -37 0 -2 18 6 40 17 21 11 44 20 49 20 5 0 16 -21 24 -47 l14
-48 9 45 c11 48 23 53 83 34 l24 -7 -27 36 c-32 41 -29 50 22 77 l37 19 -54 1
-54 0 7 50 c4 28 5 50 2 50 -2 0 -14 -16 -26 -35z"/>
<path d="M3662 12050 c3 -33 1 -35 -32 -41 -19 -4 -30 -7 -24 -8 5 0 19 -7 29
-15 18 -13 18 -15 2 -39 -16 -25 -16 -25 15 -23 26 1 33 -4 38 -24 l7 -25 11
28 c12 29 23 33 53 17 20 -11 28 3 9 15 -18 11 -10 44 13 51 l22 8 -25 6 c-19
4 -26 14 -30 40 -4 30 -6 32 -19 17 -18 -23 -35 -21 -55 6 -16 22 -16 22 -14
-13z"/>
<path d="M3045 11890 l7 -50 -54 0 -53 -1 37 -19 c20 -11 40 -25 43 -31 4 -6
-7 -28 -25 -50 l-31 -39 40 16 c50 20 71 13 71 -23 0 -53 16 -58 29 -9 13 52
22 55 70 25 18 -11 35 -18 37 -16 2 2 -7 19 -21 37 -14 19 -25 38 -25 42 0 5
18 17 40 27 46 21 42 31 -12 31 -42 0 -46 8 -28 69 l10 35 -33 -32 c-18 -18
-38 -32 -44 -32 -6 0 -21 16 -33 35 -12 19 -24 35 -27 35 -3 0 -2 -22 2 -50z"/>
<path d="M9684 11721 l-21 -25 -19 22 c-25 29 -29 28 -29 -10 0 -28 -4 -33
-30 -39 l-30 -6 28 -11 c29 -12 33 -23 17 -52 -10 -18 -8 -19 20 -14 26 6 31
3 41 -22 l12 -29 9 34 c9 34 14 35 63 15 18 -7 18 -5 -4 21 l-23 30 29 22 28
23 -32 0 c-29 0 -32 3 -35 33 l-3 33 -21 -25z"/>
<path d="M5665 11563 c-190 -16 -690 -104 -784 -138 -36 -13 -127 -42 -202
-64 -552 -163 -1107 -430 -1576 -758 -449 -315 -888 -737 -1214 -1168 -541
-715 -928 -1701 -1033 -2630 -52 -452 -44 -1001 20 -1405 8 -52 20 -144 25
-205 38 -405 211 -947 465 -1462 278 -561 571 -976 999 -1412 280 -286 509
-477 840 -703 609 -416 1405 -730 2165 -852 367 -60 499 -69 935 -63 319 4
434 9 565 26 279 34 506 78 789 151 752 196 1508 589 2097 1090 151 129 479
460 603 610 280 335 517 700 712 1095 134 272 220 479 310 745 69 206 82 270
55 270 -21 0 -22 -3 -96 -224 -184 -549 -446 -1073 -751 -1501 -236 -332 -615
-740 -907 -981 -707 -579 -1472 -941 -2377 -1123 -867 -175 -1703 -138 -2575
114 -315 91 -558 185 -855 330 -684 335 -1277 800 -1765 1385 -155 185 -383
507 -485 685 -96 166 -322 630 -384 790 -197 503 -305 992 -351 1585 -14 177
-14 689 0 860 49 601 188 1153 440 1740 441 1030 1199 1881 2180 2445 541 311
1036 500 1625 619 201 41 306 56 688 100 136 16 147 19 147 42 0 11 -23 14
-132 12 -73 -1 -151 -3 -173 -5z"/>
<path d="M6193 11560 c-75 -18 -122 -83 -123 -168 0 -39 6 -48 85 -133 106
-114 120 -156 63 -188 -24 -14 -32 -14 -75 2 -61 22 -58 22 -73 -13 -17 -41
-8 -58 46 -81 140 -62 295 83 228 214 -9 17 -40 56 -69 87 -76 81 -95 110 -95
141 0 37 27 51 79 43 37 -6 41 -4 51 20 15 40 12 64 -7 70 -42 11 -80 14 -110
6z"/>
<path d="M6885 11561 l-70 -6 -3 -35 c-4 -40 16 -60 60 -60 15 0 29 -1 30 -2
1 -2 5 -109 8 -238 l5 -235 45 0 45 0 6 165 c3 91 7 198 8 238 1 48 5 74 14
76 6 3 24 7 40 10 24 6 27 11 27 45 l0 38 -52 7 c-29 3 -62 5 -73 4 -11 -1
-51 -4 -90 -7z"/>
<path d="M7171 11556 c-19 -22 -11 -481 8 -519 42 -82 185 -98 262 -29 27 24
32 37 39 102 5 41 9 157 10 257 0 170 -1 183 -19 193 -24 12 -51 13 -71 0 -11
-7 -15 -52 -20 -234 -7 -237 -11 -256 -54 -256 -56 1 -65 38 -66 291 0 130 -4
189 -12 197 -16 16 -63 15 -77 -2z"/>
<path d="M7991 11559 c-22 -9 -23 -13 -17 -62 3 -28 6 -154 6 -279 l0 -228 45
0 45 0 1 138 c0 145 7 184 26 160 6 -7 34 -71 63 -143 29 -71 57 -136 63 -143
6 -8 27 -12 56 -10 l46 3 3 281 2 282 -34 6 c-73 14 -80 -6 -70 -187 6 -109 5
-129 -7 -125 -8 3 -42 69 -76 148 -34 78 -65 146 -70 151 -14 14 -57 18 -82 8z"/>
<path d="M7603 11554 c-14 -6 -18 -300 -6 -477 l6 -98 41 3 41 3 5 95 c3 54 9
95 15 94 6 0 33 -43 60 -95 l50 -94 43 -3 c37 -3 42 -1 42 18 0 11 -20 61 -45
110 -51 101 -54 119 -24 146 34 31 52 75 52 129 0 72 -30 123 -89 153 -24 13
-172 25 -191 16z m147 -104 c10 -5 23 -25 30 -44 13 -41 -6 -98 -40 -116 -35
-19 -50 3 -50 75 0 94 12 111 60 85z"/>
<path d="M6546 11533 c-10 -36 -115 -479 -121 -515 l-7 -38 41 0 c37 0 43 4
66 41 25 39 27 40 78 37 46 -3 53 -6 67 -33 20 -39 28 -45 69 -45 l34 0 -7 48
c-3 26 -32 153 -64 282 l-58 235 -46 3 c-38 2 -47 0 -52 -15z m78 -308 c9 -51
7 -59 -9 -71 -13 -10 -23 -10 -38 -3 -16 9 -18 18 -13 49 17 104 46 116 60 25z"/>
<path d="M2520 11407 c0 -20 -5 -27 -20 -27 -24 0 -26 -13 -5 -30 11 -9 12
-17 4 -32 -9 -17 -8 -19 10 -13 16 5 24 0 33 -20 12 -26 12 -26 20 -5 6 17 14
21 33 18 27 -6 32 1 14 19 -8 8 -6 16 10 30 l22 18 -23 6 c-18 4 -22 11 -20
34 3 29 3 29 -17 11 -20 -18 -22 -18 -41 -1 -20 18 -20 17 -20 -8z"/>
<path d="M10327 11278 l-25 -33 -31 29 c-17 17 -31 28 -31 25 0 -2 4 -19 9
-37 8 -27 7 -34 -9 -42 -10 -6 -29 -10 -42 -11 -21 0 -19 -2 10 -16 34 -18 41
-43 17 -63 -26 -21 -16 -31 15 -15 39 20 39 20 57 -22 9 -21 17 -33 19 -28 1
6 5 23 9 39 6 29 19 31 70 10 18 -7 18 -6 -3 20 -29 37 -28 50 6 66 l27 14
-35 5 c-34 6 -35 7 -34 49 0 23 0 42 -1 42 -2 0 -14 -15 -28 -32z"/>
<path d="M8472 11064 c3 -24 25 -38 194 -124 231 -117 312 -165 559 -331 489
-328 938 -753 1300 -1230 178 -233 434 -649 551 -894 80 -168 203 -477 249
-630 20 -66 58 -192 85 -281 70 -231 165 -725 173 -897 3 -67 -16 -92 -75
-102 -58 -10 -169 -69 -227 -121 -65 -59 -123 -147 -153 -231 -20 -59 -23 -87
-22 -203 0 -154 11 -192 82 -297 104 -153 274 -242 463 -243 71 0 196 32 262
67 125 66 237 218 272 366 42 178 -19 382 -154 518 -78 78 -154 120 -283 154
-50 13 -95 28 -100 33 -5 5 -18 85 -29 178 -75 648 -259 1259 -559 1853 -262
519 -544 906 -980 1342 -330 331 -714 628 -1090 844 -155 89 -485 255 -507
255 -10 0 -13 -8 -11 -26z"/>
<path d="M1881 11035 c2 -53 0 -55 -38 -55 -36 -1 -37 -2 -18 -15 47 -34 48
-36 24 -61 -26 -28 -20 -41 11 -24 29 16 50 6 50 -24 0 -37 19 -42 26 -7 5 23
12 31 28 31 12 0 27 -5 34 -12 19 -19 25 -1 8 24 -22 32 -21 36 21 56 l36 17
-39 5 c-38 5 -39 6 -37 44 l3 39 -23 -21 c-30 -29 -41 -28 -66 6 l-22 27 2
-30z"/>
<path d="M6005 10849 c-467 -15 -780 -70 -1227 -215 -709 -230 -1307 -590
-1832 -1104 -191 -187 -307 -316 -427 -475 -326 -431 -577 -905 -735 -1387
-31 -96 -36 -120 -25 -130 19 -20 45 19 76 115 224 681 704 1440 1203 1901
358 331 688 560 1106 767 511 253 1020 399 1626 466 239 26 717 23 959 -6 904
-108 1725 -449 2407 -997 138 -111 383 -334 490 -447 412 -431 810 -1118 1028
-1774 48 -144 61 -173 77 -173 30 0 24 30 -51 250 -39 113 -77 230 -85 262
-56 221 -395 817 -650 1143 -167 213 -422 482 -612 646 -556 479 -1250 844
-1938 1019 -447 114 -862 156 -1390 139z"/>
<path d="M10746 10646 c3 -8 -4 -21 -16 -29 -18 -13 -19 -15 -5 -21 11 -4 14
-12 10 -26 -5 -16 -2 -20 15 -20 11 0 23 -7 27 -17 5 -14 8 -13 15 7 6 16 14
21 29 17 16 -4 19 -2 14 14 -4 11 -2 26 4 33 9 10 7 15 -9 19 -11 3 -20 13
-20 22 0 15 -3 15 -15 5 -12 -10 -19 -10 -27 -2 -16 16 -29 15 -22 -2z"/>
<path d="M1390 10535 c0 -9 -9 -19 -20 -22 -16 -4 -18 -8 -9 -19 6 -8 9 -23 6
-34 -4 -17 -2 -20 14 -15 14 5 21 0 27 -16 7 -19 10 -20 15 -6 4 10 16 17 28
17 14 0 19 5 15 15 -3 8 1 21 8 28 12 11 11 15 -5 25 -11 7 -16 18 -12 28 5
14 3 15 -16 4 -17 -9 -26 -9 -37 1 -11 9 -14 8 -14 -6z"/>
<path d="M5905 10104 c-216 -17 -552 -80 -787 -148 -436 -125 -899 -355 -1255
-621 -281 -212 -543 -472 -758 -756 -200 -263 -404 -618 -516 -897 -50 -126
-31 -173 23 -54 263 581 504 940 887 1322 200 199 334 309 556 456 582 384
1233 605 1904 646 211 13 570 4 736 -17 719 -92 1395 -376 1945 -816 528 -422
932 -973 1210 -1649 57 -140 74 -170 95 -170 22 0 20 10 -29 133 -173 440
-348 745 -654 1137 -121 156 -418 455 -577 582 -571 454 -1248 740 -1976 833
-119 16 -682 29 -804 19z"/>
<path d="M5783 9816 c-167 -41 -337 -193 -389 -348 -9 -28 -22 -103 -28 -166
l-11 -116 -155 -57 c-270 -98 -432 -177 -641 -309 -189 -120 -308 -217 -494
-404 -419 -421 -647 -787 -819 -1313 -115 -355 -152 -628 -144 -1060 3 -169 1
-243 -6 -243 -6 0 -33 25 -60 56 -26 30 -72 69 -102 85 -32 19 -54 38 -54 48
0 35 60 111 115 147 44 28 56 40 53 57 -3 20 -9 22 -85 25 -98 3 -97 2 -58
125 14 43 25 101 25 130 0 52 -13 123 -24 134 -10 10 -37 -19 -61 -66 -35 -70
-88 -125 -149 -157 -66 -34 -84 -29 -104 32 -21 59 -11 125 26 175 18 24 32
49 32 56 0 40 -107 -16 -209 -109 -38 -36 -45 -39 -58 -25 -21 21 -26 87 -15
190 10 92 7 130 -11 124 -11 -3 -20 -30 -31 -99 -5 -25 -12 -38 -23 -38 -8 0
-43 25 -76 56 -37 35 -63 52 -65 44 -3 -7 4 -47 14 -89 11 -42 19 -111 19
-153 0 -71 -2 -79 -30 -108 -16 -17 -47 -36 -68 -42 -38 -12 -41 -11 -68 20
-30 34 -59 116 -59 169 0 68 -48 50 -99 -37 -23 -41 -26 -55 -26 -145 l0 -100
-25 1 c-14 1 -55 9 -92 19 -61 16 -68 16 -99 1 -18 -9 -36 -13 -40 -9 -9 9 4
181 26 353 19 149 20 142 -12 138 -27 -3 -28 -5 -41 -103 -7 -55 -15 -251 -18
-435 l-6 -335 -34 -67 c-30 -60 -42 -98 -30 -98 3 0 15 4 29 9 13 5 29 6 35 2
6 -4 23 -92 37 -196 36 -272 60 -397 110 -590 84 -324 187 -599 345 -920 308
-627 725 -1151 1278 -1611 650 -540 1512 -908 2375 -1014 111 -14 111 -14 121
-103 12 -112 80 -232 183 -327 106 -97 219 -140 368 -140 156 0 273 50 390
166 99 98 165 239 165 354 0 19 4 41 9 48 5 8 86 27 207 48 254 44 665 157
719 198 19 15 19 15 -12 16 -30 0 -75 -11 -373 -90 -250 -67 -497 -115 -530
-105 -10 3 -32 41 -54 94 -47 113 -82 166 -157 235 -103 95 -225 140 -384 139
-153 -1 -287 -62 -395 -180 -58 -64 -93 -126 -130 -233 l-25 -75 -70 2 c-92 3
-420 63 -615 114 -566 146 -1155 429 -1613 776 -446 338 -792 703 -1091 1153
-254 380 -431 737 -567 1140 -94 280 -205 748 -182 771 7 7 24 6 55 -1 36 -9
62 -9 129 4 48 9 87 12 92 7 5 -5 2 -32 -7 -64 -31 -108 -12 -201 63 -311 42
-61 52 -52 61 56 7 88 17 117 58 161 36 38 63 34 106 -14 47 -51 56 -76 56
-154 0 -46 4 -64 15 -69 26 -10 74 15 96 50 36 59 37 58 109 -176 241 -780
777 -1517 1470 -2022 229 -166 613 -377 867 -476 281 -109 666 -209 953 -248
157 -21 685 -30 855 -15 156 14 189 21 194 46 3 17 -3 18 -85 11 -480 -37
-752 -29 -1124 35 -724 124 -1458 486 -1985 980 -486 455 -829 966 -1053 1569
-93 251 -126 368 -127 445 0 66 1 70 23 73 13 2 30 -2 39 -10 25 -20 52 -89
59 -151 9 -76 25 -89 65 -51 47 45 73 144 64 248 -4 55 -3 86 4 90 5 4 26 0
46 -8 54 -23 125 -29 174 -16 42 11 91 48 91 69 0 5 -25 17 -55 25 -30 9 -67
27 -82 40 -24 21 -28 32 -28 79 0 136 112 136 272 -2 6 -6 28 -81 48 -168 153
-650 431 -1145 901 -1603 172 -168 268 -246 453 -367 370 -244 626 -359 1021
-458 236 -60 393 -78 660 -79 308 -1 540 28 844 106 534 135 1129 495 1513
914 438 477 694 1023 790 1684 32 218 23 831 -13 925 -4 8 -15 15 -25 15 -24
0 -25 -36 -4 -245 70 -718 -143 -1507 -556 -2060 -147 -198 -414 -478 -504
-530 -27 -16 -62 -41 -76 -55 -54 -52 -125 -106 -186 -142 -35 -20 -82 -52
-106 -71 -101 -81 -385 -223 -620 -311 -199 -74 -505 -142 -737 -162 -315 -27
-593 -14 -810 36 -147 35 -351 91 -393 109 -24 10 -79 28 -124 39 -44 11 -104
33 -134 47 -29 15 -69 33 -89 40 -19 7 -64 31 -99 54 -35 22 -68 41 -73 41
-17 0 -214 122 -288 179 -41 32 -86 64 -100 71 -174 92 -574 510 -755 790
-275 424 -449 924 -496 1423 -17 181 -7 554 20 717 76 470 238 894 484 1263
138 207 231 321 402 492 255 256 469 414 761 562 241 122 516 231 541 215 5
-4 29 -45 53 -90 75 -144 181 -239 324 -290 98 -35 250 -36 346 -3 195 67 313
198 379 419 l22 72 47 0 c95 0 473 -75 598 -120 59 -20 164 -28 164 -11 0 16
-26 30 -105 55 -159 50 -452 111 -626 131 -31 3 -63 12 -72 18 -8 7 -19 39
-26 72 -29 155 -155 326 -292 392 -121 60 -274 78 -396 49z m-4153 -3568 c13
-18 45 -58 71 -88 82 -97 95 -145 40 -155 -48 -10 -106 -24 -123 -30 -28 -11
-38 33 -38 169 0 149 7 163 50 104z m115 -472 c43 -33 59 -85 44 -141 -13 -48
-41 -80 -91 -106 -69 -35 -68 -35 -87 104 -15 104 -14 164 2 171 28 12 98 -2
132 -28z"/>
<path d="M683 9765 l2 -50 -42 2 c-52 2 -55 -8 -8 -30 42 -20 43 -32 8 -69
-33 -34 -25 -45 17 -23 40 21 60 13 60 -22 0 -15 4 -34 9 -42 7 -11 12 -4 21
27 12 46 27 52 70 27 40 -23 44 -17 16 19 -14 19 -26 39 -26 44 0 6 19 18 43
28 38 16 39 18 17 21 -70 10 -73 11 -65 49 3 20 9 43 12 52 3 9 -12 -1 -33
-22 l-38 -39 -32 39 -33 38 2 -49z"/>
<path d="M11660 9765 c-26 -43 -41 -44 -73 -5 -33 38 -38 38 -26 -2 17 -61 14
-68 -36 -68 -47 0 -61 -14 -22 -23 12 -4 31 -13 42 -21 20 -14 20 -14 -1 -43
-38 -52 -37 -55 5 -34 22 12 45 21 50 21 5 0 16 -21 24 -47 l14 -48 9 45 c11
48 23 53 83 34 l24 -7 -27 36 c-32 41 -29 50 22 77 l37 19 -54 1 -54 0 7 50
c4 28 5 50 2 50 -2 0 -14 -16 -26 -35z"/>
<path d="M394 9158 l1 -53 -47 3 c-27 2 -48 1 -48 -2 0 -3 18 -15 40 -26 46
-24 49 -38 15 -70 -36 -34 -31 -42 15 -24 23 9 44 13 48 10 4 -4 12 -26 18
-49 l11 -42 12 42 c6 23 16 45 21 48 6 4 26 -3 46 -15 19 -12 37 -20 39 -18 3
2 -6 20 -20 38 -14 19 -25 37 -25 42 0 4 19 16 43 26 l42 19 -49 7 c-53 8 -50
2 -31 86 6 24 5 23 -23 -7 -37 -42 -55 -41 -82 2 -12 19 -23 35 -25 35 -1 0
-2 -24 -1 -52z"/>
<path d="M12072 8970 c-15 -25 -29 -25 -55 -2 -19 17 -20 16 -15 -11 5 -25 1
-31 -25 -42 -29 -12 -29 -13 -9 -19 24 -8 28 -27 11 -57 -9 -19 -9 -19 10 -10
30 16 39 14 55 -16 14 -25 15 -26 16 -7 0 28 21 46 40 34 27 -17 33 -10 15 17
-17 25 -17 27 6 44 l24 19 -27 0 c-28 0 -32 6 -28 48 2 27 -2 28 -18 2z"/>
<path d="M8230 8973 c-62 -24 -102 -81 -102 -148 0 -57 23 -97 97 -175 90 -94
102 -123 65 -160 -23 -23 -59 -25 -108 -8 -30 11 -35 11 -48 -7 -8 -10 -14
-32 -14 -47 0 -24 7 -32 37 -45 57 -23 142 -14 188 21 66 50 95 153 58 206 -9
14 -49 60 -89 102 -109 114 -112 163 -13 163 l54 0 3 46 c3 41 0 47 -20 53
-28 7 -87 7 -108 -1z"/>
<path d="M6494 8955 c-8 -20 -2 -50 57 -297 52 -222 64 -258 82 -270 19 -12
75 -9 83 4 11 17 132 499 136 540 3 32 2 33 -38 36 -50 4 -51 2 -94 -174 -47
-192 -52 -191 -101 14 -17 73 -37 139 -46 147 -19 20 -72 19 -79 0z"/>
<path d="M7276 8954 c-3 -9 -6 -141 -6 -295 l0 -279 29 0 c58 0 61 4 62 104 1
116 11 197 24 196 6 -1 34 -63 63 -138 29 -75 58 -142 64 -149 18 -22 85 -16
98 7 8 15 9 104 4 295 l-7 275 -44 0 -43 0 0 -154 c0 -85 -4 -157 -9 -160 -13
-9 -23 9 -80 149 -30 72 -61 138 -69 148 -19 22 -78 23 -86 1z"/>
<path d="M7717 8964 c-4 -4 -7 -118 -7 -253 0 -215 2 -250 18 -280 22 -44 73
-71 135 -71 56 0 90 16 132 60 l30 31 0 257 0 257 -41 3 c-41 3 -41 2 -47 -35
-4 -21 -7 -85 -7 -143 0 -58 -3 -149 -7 -203 -5 -89 -8 -100 -30 -114 -19 -12
-29 -13 -48 -5 -39 18 -48 74 -43 267 7 215 4 229 -42 233 -20 2 -39 0 -43 -4z"/>
<path d="M6944 8948 c-12 -18 -17 -476 -7 -523 l9 -40 94 -3 c130 -4 140 -1
140 47 l0 38 -62 7 c-80 8 -92 21 -83 96 4 30 9 58 11 61 2 3 31 9 65 13 34 3
64 8 67 11 8 8 5 56 -5 66 -5 5 -37 12 -71 15 l-63 7 3 66 3 66 63 3 c56 3 64
6 72 27 19 50 8 55 -115 55 -80 0 -116 -4 -121 -12z"/>
<path d="M6090 8530 c-181 -9 -377 -38 -509 -76 -261 -75 -562 -228 -796 -404
-118 -89 -323 -284 -408 -390 -257 -319 -438 -723 -507 -1135 -31 -185 -32
-196 -27 -425 5 -262 22 -384 83 -609 81 -296 235 -601 422 -836 73 -92 258
-281 352 -360 162 -135 474 -325 535 -325 21 0 26 4 23 22 -2 17 -31 37 -120
84 -577 308 -1017 854 -1169 1450 -46 185 -60 307 -66 590 -5 216 -3 278 11
360 53 311 161 615 309 867 167 282 447 574 732 759 186 122 564 288 715 314
19 3 60 14 91 24 117 39 372 52 549 28 105 -14 140 -7 140 26 0 13 -6 26 -14
29 -30 12 -187 15 -346 7z"/>
<path d="M8510 8254 c-15 -17 -12 -21 166 -256 116 -152 211 -300 304 -476 55
-103 69 -122 89 -122 21 0 23 3 18 29 -7 33 -145 294 -218 413 -85 138 -311
428 -334 428 -7 0 -18 -7 -25 -16z"/>
<path d="M7291 8241 c-15 -10 -5 -17 144 -105 268 -158 535 -404 723 -666 45
-63 76 -96 90 -98 37 -6 27 28 -37 121 -157 229 -392 459 -640 627 -163 109
-245 144 -280 121z"/>
<path d="M7060 7630 c-24 -6 -25 -9 -30 -111 -6 -128 -14 -141 -79 -137 l-46
3 -2 100 c-4 131 -7 145 -38 145 -13 0 -35 -4 -49 -10 l-26 -10 1 -227 c1
-126 4 -253 7 -283 l7 -55 45 0 45 0 5 120 5 120 63 3 62 3 0 -121 0 -120 55
0 55 0 -2 287 -3 287 -25 6 c-14 4 -36 4 -50 0z"/>
<path d="M5794 7612 c-6 -4 -21 -52 -33 -107 -12 -55 -42 -179 -66 -275 -24
-96 -40 -178 -37 -182 8 -8 28 -11 65 -9 21 1 31 9 44 35 13 28 24 36 54 41
53 9 77 -1 93 -39 10 -25 22 -35 46 -39 39 -8 50 -3 50 25 0 32 -121 531 -133
546 -10 13 -65 16 -83 4z m71 -334 c8 -59 -8 -85 -45 -73 -20 6 -22 11 -16 58
14 102 48 111 61 15z"/>
<path d="M6085 7610 c-7 -12 13 -533 21 -555 4 -9 19 -15 39 -15 30 0 33 3 39
38 3 20 6 63 6 95 0 39 4 57 13 57 7 0 33 -42 59 -94 43 -86 49 -94 81 -100
48 -9 69 1 61 28 -4 11 -29 65 -56 119 l-49 99 35 38 c48 53 63 106 46 163
-18 66 -60 112 -114 126 -56 14 -173 14 -181 1z m175 -110 c35 -35 22 -127
-20 -150 -36 -19 -50 3 -50 79 0 89 26 115 70 71z"/>
<path d="M6440 7581 c0 -39 1 -40 43 -48 l42 -9 5 -229 c3 -127 8 -235 12
-241 12 -18 56 -26 78 -14 19 10 20 24 22 248 3 228 4 237 23 240 65 10 66 11
63 50 l-3 37 -142 3 -143 3 0 -40z"/>
<path d="M5350 7325 l0 -284 33 -6 c17 -3 73 -2 122 2 l90 8 0 35 0 35 -60 9
c-91 12 -86 7 -83 88 l3 73 65 5 65 5 0 40 0 40 -62 3 c-74 3 -86 17 -81 90
l3 47 65 3 c72 3 90 13 90 48 0 34 -33 44 -151 44 l-99 0 0 -285z"/>
<path d="M2711 7491 c-11 -7 -12 -35 -6 -151 7 -134 6 -142 -11 -138 -13 2
-37 45 -79 138 l-61 135 -47 3 -47 3 2 -283 3 -283 49 -3 49 -3 -6 143 c-6
138 0 185 22 163 5 -6 36 -75 68 -155 l60 -145 50 -3 c43 -3 52 0 57 16 7 22
-11 550 -20 563 -7 11 -65 11 -83 0z"/>
<path d="M1777 7478 c-49 -13 -106 -70 -109 -106 -3 -57 4 -108 20 -132 8 -14
49 -57 90 -96 67 -64 73 -73 70 -104 -2 -25 -10 -39 -30 -49 -24 -14 -32 -14
-77 1 -50 16 -51 16 -66 -5 -31 -45 -7 -84 66 -106 88 -26 200 48 214 141 10
64 -12 106 -105 203 -106 111 -107 152 -2 165 40 4 47 8 54 35 5 20 3 34 -5
42 -18 17 -77 23 -120 11z"/>
<path d="M2038 7479 c-16 -9 -18 -26 -18 -122 0 -191 18 -378 38 -406 36 -49
69 -66 131 -66 46 0 66 6 99 28 71 47 73 56 70 327 -2 131 -6 241 -9 245 -4 3
-25 3 -48 -1 l-41 -7 -1 -151 c-1 -206 -11 -315 -29 -327 -26 -16 -64 -6 -77
22 -8 17 -15 104 -19 242 l-7 215 -30 6 c-37 8 -38 7 -59 -5z"/>
<path d="M10718 7298 c-14 -13 -37 -54 -53 -91 -15 -37 -33 -66 -39 -64 -12 3
-56 85 -74 136 -10 29 -14 31 -63 31 -49 0 -51 -1 -45 -25 3 -13 32 -80 63
-147 55 -122 56 -124 66 -258 5 -78 14 -138 21 -142 18 -12 61 -9 81 6 16 12
18 23 12 123 l-7 110 59 149 c75 187 75 188 35 192 -22 2 -39 -4 -56 -20z"/>
<path d="M9423 7286 c-100 -47 -148 -153 -141 -307 8 -163 81 -254 216 -266
52 -5 62 -3 81 16 14 14 21 32 19 49 -3 26 -6 27 -69 32 -48 4 -73 11 -89 25
-83 74 -80 295 5 351 13 8 49 18 79 21 l56 6 0 36 c0 21 -5 42 -12 49 -20 20
-89 14 -145 -12z"/>
<path d="M9698 7292 c-24 -2 -39 -9 -42 -20 -3 -9 -2 -120 3 -247 l9 -229 45
-43 c45 -42 47 -43 115 -43 64 0 72 3 115 36 l47 37 0 253 0 254 -26 6 c-15 4
-39 3 -53 -2 l-26 -9 -5 -230 -5 -230 -43 -3 c-38 -3 -43 0 -52 23 -6 14 -10
118 -10 230 0 228 2 224 -72 217z"/>
<path d="M10090 7028 c0 -306 1 -312 60 -306 32 3 35 6 37 38 8 108 16 160 24
160 5 0 30 -42 55 -92 26 -51 52 -96 58 -100 21 -14 76 -9 83 8 4 10 -13 55
-40 110 -50 101 -57 134 -30 155 43 37 57 155 25 219 -27 54 -71 74 -179 78
l-93 4 0 -274z m181 140 c24 -39 19 -81 -13 -115 -35 -37 -61 -27 -72 28 -5
25 -6 62 -2 82 6 33 10 37 37 37 22 0 34 -8 50 -32z"/>
<path d="M8928 7276 c-15 -15 -16 -44 -12 -279 3 -144 7 -268 10 -275 2 -9 18
-12 46 -10 l43 3 2 45 c5 84 14 130 26 130 7 0 31 -41 54 -90 l42 -90 41 0
c27 0 43 5 47 15 3 9 -17 60 -46 116 -28 56 -51 105 -51 111 0 6 13 26 30 44
73 84 55 213 -38 267 -46 27 -172 35 -194 13z m149 -101 c27 -19 38 -71 23
-110 -13 -34 -26 -45 -56 -45 -27 0 -34 17 -34 81 0 82 22 105 67 74z"/>
<path d="M8368 7273 c-21 -5 -32 -39 -57 -168 -27 -143 -40 -187 -54 -182 -6
2 -29 75 -49 162 -21 87 -43 164 -49 172 -15 18 -64 17 -79 -2 -12 -15 -69
-437 -70 -518 l0 -38 48 3 47 3 7 60 c4 33 10 86 13 118 4 39 11 57 20 57 14
0 19 -13 52 -155 l18 -80 42 -3 c52 -4 54 0 83 146 31 156 41 153 65 -21 8
-60 17 -113 20 -118 9 -14 72 -11 78 4 7 18 -55 542 -65 553 -7 6 -55 12 -70
7z"/>
<path d="M8587 7273 c-9 -8 -9 -406 0 -496 l6 -68 116 3 116 3 0 40 0 40 -65
5 c-72 6 -77 12 -79 101 -1 52 7 59 64 59 19 0 46 4 60 10 22 8 26 15 23 42
l-3 33 -67 3 c-82 4 -91 12 -81 83 l8 54 60 5 c33 3 66 9 73 13 18 12 15 64
-4 71 -21 8 -219 8 -227 -1z"/>
<path d="M7220 7167 c0 -28 9 -41 54 -80 100 -86 261 -360 326 -555 43 -129
63 -303 57 -497 -6 -189 -22 -260 -104 -464 -78 -192 -160 -311 -322 -470
-117 -113 -397 -292 -435 -278 -8 3 -33 31 -55 61 -79 107 -178 184 -290 227
-71 27 -225 37 -313 19 -133 -25 -297 -145 -374 -271 -24 -40 -42 -59 -55 -59
-28 0 -142 60 -245 128 -283 190 -477 441 -587 758 -53 154 -62 216 -62 434 1
149 5 215 19 280 39 187 154 441 263 583 38 49 78 105 90 125 23 38 30 72 14
72 -18 0 -131 -132 -195 -227 -158 -238 -232 -473 -243 -768 -9 -264 31 -454
148 -690 77 -156 170 -286 294 -410 111 -111 215 -186 380 -272 l110 -58 0
-155 c0 -147 2 -158 28 -220 61 -144 185 -268 327 -327 53 -22 85 -27 174 -31
198 -8 302 32 437 167 149 150 196 299 157 508 -14 78 -17 75 117 142 130 65
248 152 361 267 219 221 334 436 394 733 78 384 -5 781 -233 1115 -67 98 -201
246 -223 246 -9 0 -14 -11 -14 -33z"/>
<path d="M6010 6881 c-35 -11 -107 -41 -160 -67 -253 -128 -410 -422 -387
-724 9 -111 68 -259 159 -395 74 -111 150 -176 288 -245 125 -63 158 -70 329
-70 181 1 217 7 325 61 208 101 350 264 416 474 18 57 22 95 22 210 1 153 -12
213 -73 337 -88 180 -262 336 -448 402 -80 28 -97 30 -246 33 -133 2 -171 -1
-225 -16z"/>
<path d="M10874 6228 c0 -244 -3 -518 -8 -610 -6 -121 -6 -168 2 -168 44 0 57
155 56 675 0 454 -6 537 -35 543 -15 3 -16 -40 -15 -440z"/>
<path d="M10104 6588 c37 -307 33 -764 -10 -1050 -18 -125 -18 -128 6 -128 30
0 38 28 56 195 25 237 30 688 10 870 -10 82 -20 153 -22 157 -3 4 -14 8 -26 8
-19 0 -20 -4 -14 -52z"/>
<path d="M8510 6608 c-113 -30 -141 -41 -200 -75 -163 -96 -281 -283 -297
-472 -7 -82 12 -153 70 -265 68 -131 187 -233 327 -283 29 -10 56 -26 61 -35
22 -40 -155 -436 -274 -615 -232 -347 -558 -640 -894 -805 -57 -28 -103 -55
-103 -61 0 -17 125 0 172 24 137 69 395 266 548 419 284 283 481 600 596 960
9 30 21 60 26 67 5 6 37 14 71 18 161 16 265 63 367 165 110 110 161 232 161
385 0 143 -47 265 -141 368 -86 94 -170 141 -345 193 -88 26 -94 26 -145 12z"/>
<path d="M11127 5354 c-4 -4 -7 -132 -7 -285 0 -268 1 -279 20 -289 12 -7 32
-7 52 -2 l33 8 -3 250 c-2 137 -7 265 -11 284 -6 31 -11 35 -42 38 -19 2 -38
0 -42 -4z"/>
<path d="M11325 5351 c-35 -5 -40 -10 -43 -34 -4 -36 13 -57 49 -57 15 0 31
-6 36 -12 4 -7 10 -113 13 -235 3 -122 8 -224 12 -228 12 -12 80 -7 89 7 5 7
9 116 9 241 0 174 3 228 13 231 69 18 72 21 72 56 l0 35 -105 1 c-58 1 -123
-1 -145 -5z"/>
<path d="M11688 5353 c-26 -3 -39 -10 -43 -24 -4 -12 -4 -138 0 -281 l8 -260
119 4 c129 3 141 9 129 57 -7 24 -11 26 -76 29 -40 2 -73 8 -77 15 -11 17 -10
109 2 127 6 10 32 17 72 20 l63 5 3 43 3 42 -69 0 c-78 0 -82 4 -82 70 0 66 4
70 82 70 l69 0 -3 43 -3 42 -80 1 c-44 1 -97 -1 -117 -3z"/>
<path d="M11984 5108 c4 -139 10 -268 13 -286 5 -32 7 -33 47 -30 l41 3 3 93
c2 64 6 92 15 92 7 0 32 -39 57 -88 l45 -87 50 0 c63 0 62 6 -6 129 -27 49
-49 93 -49 97 0 5 14 24 31 43 52 60 63 132 28 202 -32 68 -68 84 -184 84
l-98 0 7 -252z m168 145 c37 -33 16 -138 -30 -150 -33 -8 -42 9 -42 83 0 80
28 107 72 67z"/>
<path d="M10773 5344 l-23 -5 1 -257 c2 -305 3 -316 44 -320 49 -4 57 9 63 94
2 44 9 84 14 90 5 7 23 15 41 18 33 6 94 60 116 103 6 12 11 48 11 80 -1 122
-66 193 -182 198 -35 2 -73 1 -85 -1z m137 -112 c23 -19 37 -83 26 -126 -3
-14 -18 -33 -32 -42 -23 -16 -27 -16 -41 -1 -21 20 -24 147 -4 170 17 21 24
21 51 -1z"/>
<path d="M10326 5324 c-9 -24 -7 -296 4 -402 5 -55 15 -103 25 -118 54 -83
199 -86 267 -6 33 40 41 128 30 367 l-7 170 -45 0 -45 0 -5 -228 c-5 -226 -5
-229 -29 -248 -28 -23 -32 -23 -56 -5 -25 18 -33 89 -34 293 -1 89 -4 168 -7
177 -4 11 -19 16 -49 16 -30 0 -45 -5 -49 -16z"/>
<path d="M10139 5313 c-1 -5 -1 -109 1 -232 2 -239 2 -241 -48 -241 -28 0 -47
-38 -38 -74 6 -24 11 -26 61 -26 46 0 60 4 87 29 l33 29 3 261 3 261 -50 0
c-28 0 -52 -3 -52 -7z"/>
<path d="M9932 4838 c-150 -380 -207 -499 -349 -738 -332 -556 -806 -1028
-1374 -1368 -79 -47 -317 -166 -481 -240 -81 -37 -89 -57 -20 -50 61 6 422
183 612 300 550 339 1019 829 1357 1418 78 136 117 213 192 387 72 166 99 262
84 296 l-11 22 -10 -27z"/>
<path d="M10672 4657 c-6 -7 -40 -85 -75 -172 -257 -638 -528 -1080 -944
-1537 -260 -287 -552 -530 -921 -772 -153 -100 -184 -127 -168 -144 18 -17
378 213 556 356 587 472 995 973 1319 1621 108 215 253 564 263 630 3 28 -14
38 -30 18z"/>
<path d="M6489 3926 c-60 -21 -96 -54 -124 -110 -69 -142 -48 -338 48 -436 40
-41 64 -50 134 -50 69 0 114 21 155 72 46 59 57 100 58 224 0 135 -16 189 -74
249 -58 60 -124 77 -197 51z m115 -114 c37 -33 56 -92 56 -177 0 -128 -42
-197 -121 -199 -34 -1 -45 4 -65 29 -72 90 -49 333 34 364 33 12 70 5 96 -17z"/>
<path d="M7085 3930 c-3 -5 -3 -76 1 -156 7 -139 6 -146 -12 -142 -13 2 -35
43 -79 148 l-61 145 -49 0 -50 0 -2 -155 c-2 -85 0 -213 5 -285 8 -141 10
-145 68 -131 23 6 24 7 26 161 2 92 7 156 13 158 5 1 39 -69 74 -155 l65 -157
44 -7 c24 -4 48 -2 53 3 5 5 8 126 7 294 l-3 284 -47 3 c-25 2 -49 -2 -53 -8z"/>
<path d="M5961 3908 c-48 -24 -94 -86 -112 -153 -6 -22 -9 -87 -7 -146 3 -94
7 -112 33 -164 41 -80 90 -117 159 -123 73 -6 117 11 165 63 41 44 63 102 76
196 9 59 -10 180 -34 227 -24 46 -77 97 -114 111 -46 18 -118 13 -166 -11z
m162 -105 c29 -27 50 -118 45 -199 -6 -86 -31 -141 -78 -168 -32 -19 -33 -19
-66 -1 -19 10 -44 35 -57 54 -19 31 -22 50 -22 141 0 121 16 163 74 192 36 18
69 12 104 -19z"/>
<path d="M5626 3901 c-3 -5 -20 -77 -37 -161 -33 -166 -43 -200 -58 -200 -6 0
-13 17 -17 38 -5 31 -36 179 -61 295 -5 25 -9 27 -54 27 -27 0 -49 -4 -49 -10
0 -5 -14 -116 -31 -247 -18 -131 -32 -254 -33 -273 -1 -34 0 -35 40 -38 38 -3
43 -1 52 27 6 17 14 73 18 125 11 158 30 157 64 -4 30 -140 35 -150 76 -150
42 0 49 13 73 132 22 105 29 128 41 128 17 0 22 -22 30 -129 4 -60 11 -114 14
-120 11 -17 83 -14 89 3 3 8 4 30 1 48 -2 18 -18 134 -35 258 -16 124 -32 233
-35 243 -4 12 -16 17 -44 17 -21 0 -41 -4 -44 -9z"/>
<path d="M715 2972 c-9 -52 -22 -59 -65 -37 -42 22 -50 11 -17 -23 15 -16 27
-33 27 -40 0 -6 -18 -21 -40 -32 -22 -11 -40 -23 -40 -25 0 -3 21 -4 48 -2
l47 2 -2 -54 -3 -54 31 41 c33 45 45 46 78 1 29 -39 36 -32 20 21 -15 50 -6
59 56 61 l40 0 -45 20 c-24 11 -46 22 -49 24 -2 3 8 23 23 45 14 22 24 40 21
40 -3 0 -24 -9 -45 -20 l-40 -21 -9 23 c-30 78 -28 77 -36 30z"/>
<path d="M11701 2800 c-13 -43 -33 -51 -67 -25 -35 27 -46 17 -20 -18 15 -19
26 -38 26 -44 0 -5 -19 -19 -42 -29 l-43 -19 45 -5 c42 -5 45 -7 45 -35 -1
-16 -4 -41 -9 -55 -7 -22 -3 -20 30 14 l38 39 33 -39 33 -39 -3 50 -2 50 48
-2 c26 -1 47 0 47 2 0 2 -18 14 -40 26 -22 13 -40 27 -40 33 0 5 14 25 32 43
35 37 27 42 -27 16 -31 -15 -37 -15 -45 -3 -6 8 -10 24 -10 35 -1 43 -17 46
-29 5z"/>
<path d="M8273 2364 c-62 -31 -90 -117 -63 -190 6 -15 41 -59 79 -98 94 -98
110 -135 74 -171 -15 -16 -54 -17 -128 -4 -13 3 -23 -5 -33 -24 -17 -35 -9
-61 24 -76 120 -54 251 18 262 143 4 51 3 54 -49 115 -125 146 -139 164 -139
180 0 28 21 41 66 41 53 0 76 21 72 64 -3 31 -3 31 -68 33 -44 2 -75 -2 -97
-13z"/>
<path d="M7534 2362 c-15 -9 -34 -73 -90 -307 -53 -219 -58 -267 -31 -273 35
-7 67 8 73 33 8 32 32 45 83 45 39 0 72 -20 82 -48 2 -6 23 -14 47 -18 39 -6
42 -5 42 17 0 30 -115 477 -134 524 -15 35 -44 46 -72 27z m61 -334 c8 -56 -1
-71 -36 -66 -22 3 -24 8 -23 54 1 28 7 61 14 74 12 22 13 22 25 6 8 -10 16
-40 20 -68z"/>
<path d="M7827 2363 c-4 -3 -7 -134 -7 -290 l0 -283 39 0 c56 0 64 15 60 111
-3 50 0 83 6 86 6 2 31 -39 57 -91 46 -91 48 -94 87 -101 77 -13 78 6 11 131
-27 51 -50 99 -50 107 0 7 12 24 26 38 49 45 67 122 43 186 -15 42 -68 92
-109 103 -40 11 -153 13 -163 3z m167 -125 c22 -31 20 -80 -5 -112 -45 -57
-84 -20 -77 76 6 82 40 97 82 36z"/>
<path d="M6916 2338 c-17 -28 -79 -517 -68 -545 3 -11 80 -20 83 -10 0 1 8 56
17 122 13 93 20 120 32 120 11 0 20 -24 33 -80 34 -147 37 -154 58 -160 11 -4
31 -4 44 -1 20 5 26 18 45 103 28 127 34 146 48 151 13 4 19 -27 31 -152 5
-54 14 -92 22 -97 12 -7 67 -2 78 8 7 5 -48 448 -65 526 -6 29 -38 44 -72 33
-22 -7 -29 -31 -68 -221 -13 -65 -28 -123 -33 -128 -14 -14 -26 18 -61 168
-36 157 -49 185 -85 185 -15 0 -30 -9 -39 -22z"/>
<path d="M1156 2279 c-8 -48 -23 -56 -66 -34 -42 22 -47 14 -15 -23 32 -38 32
-48 -4 -67 -49 -25 -48 -37 0 -33 l44 3 0 -53 -1 -52 23 27 c12 16 22 31 23
36 1 19 38 4 63 -25 27 -31 28 -32 23 -8 -19 76 -19 77 6 83 12 4 37 7 53 7
l30 1 -34 15 c-60 26 -63 32 -36 72 13 20 23 38 20 40 -2 2 -20 -6 -39 -18
-42 -25 -53 -21 -62 25 -9 50 -20 51 -28 4z"/>
<path d="M11265 2125 c-16 -64 -21 -67 -65 -45 -53 27 -55 26 -25 -17 14 -21
25 -41 25 -45 0 -4 -19 -16 -42 -27 l-43 -19 35 -1 c56 -2 65 -12 52 -62 -6
-24 -9 -45 -7 -47 2 -2 13 10 26 27 30 41 50 39 82 -6 l27 -37 -3 54 -2 55 48
-3 c26 -2 47 -1 47 2 0 3 -18 15 -40 26 -46 24 -49 38 -15 70 36 33 31 43 -12
25 -44 -19 -63 -14 -64 17 0 13 -4 32 -9 43 -7 18 -8 17 -15 -10z"/>
<path d="M1712 1720 c-7 -12 -18 -17 -27 -13 -13 4 -15 0 -9 -21 4 -16 2 -26
-5 -26 -6 0 -11 -4 -11 -10 0 -5 7 -10 16 -10 9 0 18 -9 21 -20 4 -16 8 -18
19 -9 11 9 18 8 29 -1 13 -10 15 -9 15 9 0 13 9 25 22 30 19 7 19 8 4 14 -13
5 -16 14 -12 32 5 20 3 23 -10 18 -10 -4 -22 0 -29 10 -10 14 -12 14 -23 -3z"/>
<path d="M10817 1476 c-5 -12 -13 -15 -26 -11 -15 5 -18 1 -13 -20 2 -15 0
-25 -7 -25 -6 0 -11 -4 -11 -10 0 -5 7 -10 15 -10 8 0 15 -8 15 -17 0 -14 9
-18 35 -19 23 0 35 4 35 13 0 8 7 16 15 19 11 5 13 10 5 19 -6 7 -8 20 -4 29
4 11 1 16 -11 16 -10 0 -23 7 -30 16 -11 16 -12 15 -18 0z"/>
<path d="M10365 1172 c-8 -40 -26 -49 -57 -28 -34 24 -42 19 -19 -13 28 -38
27 -46 -9 -61 -36 -15 -30 -30 12 -30 30 0 31 0 24 -42 l-7 -43 31 30 31 29
25 -29 25 -30 -3 30 c-3 44 9 57 43 50 32 -7 41 10 10 20 -40 12 -43 31 -14
66 23 27 25 32 8 25 -45 -19 -65 -19 -71 0 -18 58 -21 60 -29 26z"/>
<path d="M2195 1154 c-7 -37 -14 -39 -71 -17 -16 6 -15 3 4 -21 29 -37 28 -43
-10 -65 l-31 -20 39 -3 c39 -3 39 -3 37 -43 l-2 -40 24 28 c30 33 35 33 65 2
29 -31 33 -28 19 14 -14 39 -3 50 46 51 l30 1 -32 16 c-37 19 -40 33 -17 68
18 28 11 31 -26 10 -28 -15 -50 -4 -50 26 0 34 -18 29 -25 -7z"/>
<path d="M2837 820 c-5 -18 -11 -22 -31 -18 -30 6 -30 5 -13 -23 10 -17 9 -22
-6 -33 -16 -13 -16 -14 8 -20 16 -4 25 -13 25 -26 0 -18 3 -19 20 -8 15 10 22
10 32 0 19 -19 26 -14 20 13 -3 20 0 25 17 25 26 0 27 8 4 26 -16 11 -16 16
-5 34 12 20 12 21 -9 15 -16 -6 -26 -2 -39 15 l-17 23 -6 -23z"/>
<path d="M9926 644 c-4 -12 -13 -14 -32 -10 -22 6 -24 5 -15 -13 15 -27 14
-30 -11 -40 -23 -9 -23 -9 6 -20 21 -9 27 -16 23 -31 -3 -11 -1 -20 4 -20 5 0
9 5 9 10 0 14 37 12 46 -2 6 -9 10 -5 14 12 4 15 15 26 30 30 21 5 22 7 8 13
-20 7 -24 37 -8 53 7 7 1 9 -20 6 -23 -3 -30 0 -30 12 0 21 -16 21 -24 0z"/>
<path d="M9311 560 c-13 -44 -32 -50 -69 -24 -32 22 -38 11 -13 -24 12 -17 21
-35 21 -40 0 -5 -19 -18 -42 -28 l-43 -18 45 -6 c42 -5 45 -7 45 -35 -1 -16
-4 -41 -9 -55 -7 -22 -3 -20 30 14 l38 39 34 -39 33 -39 -3 50 -3 50 45 5 45
5 -32 18 c-46 25 -49 35 -17 68 35 36 27 45 -20 22 -32 -15 -38 -15 -46 -3 -6
8 -10 27 -10 42 0 42 -16 41 -29 -2z"/>
<path d="M3366 489 c-8 -47 -24 -56 -65 -35 -44 23 -46 20 -17 -18 33 -44 33
-52 -3 -71 -47 -24 -50 -39 -7 -31 51 10 65 -4 56 -54 -9 -48 -2 -50 25 -10
26 38 43 38 78 -2 31 -36 31 -36 12 43 -7 29 9 38 70 40 29 0 29 1 -12 19 -49
22 -51 30 -22 76 23 39 17 42 -25 15 -37 -25 -54 -18 -62 25 -9 49 -20 50 -28
3z"/>
</g>
</svg>
